<svg width="34" height="28" viewBox="0 0 34 28" fill="none" xmlns="http://www.w3.org/2000/svg">
<path d="M4.9743 27.1971C1.6148 26.7385 0.055682 24.9775 0.055682 21.6023V20.3553H8.50086H16.9461V18.7961V17.2369H11.0808C4.41749 17.2369 3.21103 17.09 1.87464 16.081C0.705308 15.2009 0.222731 14.1004 0.0928025 12.1007L0 10.4499H9.67019C18.895 10.4499 19.3775 10.4685 20.5654 10.835C21.4378 11.0918 21.9945 11.4039 22.4957 11.8989C23.7021 13.0915 23.8135 13.7148 23.8135 18.9612C23.8135 23.4183 23.795 23.6016 23.3681 24.4821C23.1267 24.9956 22.737 25.5826 22.4957 25.8031C21.8461 26.3896 20.5469 26.9036 19.1733 27.1236C18.0411 27.307 6.23645 27.3618 4.9743 27.1971Z" fill="#FB4449"/>
<path d="M0.0588531 6.52459C0.0588531 6.08437 0.225903 5.16724 0.448631 4.47021C0.764167 3.44302 1.00546 3.05783 1.87782 2.21405C3.67822 0.453125 3.69678 0.453125 12.309 0.453125C19.1208 0.453125 19.7148 0.47145 20.6242 0.819989C22.8516 1.62707 23.8167 3.09448 23.8167 5.73584V7.33167H11.9377H0.0588531V6.52459Z" fill="#FB4449"/>
<path d="M30.6311 7.32821C32.4917 7.32821 34 5.84469 34 4.01468C34 2.18466 32.4917 0.701141 30.6311 0.701141C28.7704 0.701141 27.2621 2.18466 27.2621 4.01468C27.2621 5.84469 28.7704 7.32821 30.6311 7.32821Z" fill="#FB4449"/>
</svg>
